{
	"patcher" : 	{
		"fileversion" : 1,
		"appversion" : 		{
			"major" : 8,
			"minor" : 6,
			"revision" : 4,
			"architecture" : "x64",
			"modernui" : 1
		}
,
		"classnamespace" : "box",
		"rect" : [ 133.0, 87.0, 426.0, 555.0 ],
		"bglocked" : 0,
		"openinpresentation" : 0,
		"default_fontsize" : 12.0,
		"default_fontface" : 0,
		"default_fontname" : "Arial",
		"gridonopen" : 1,
		"gridsize" : [ 15.0, 15.0 ],
		"gridsnaponopen" : 1,
		"objectsnaponopen" : 1,
		"statusbarvisible" : 2,
		"toolbarvisible" : 1,
		"lefttoolbarpinned" : 0,
		"toptoolbarpinned" : 0,
		"righttoolbarpinned" : 0,
		"bottomtoolbarpinned" : 0,
		"toolbars_unpinned_last_save" : 0,
		"tallnewobj" : 0,
		"boxanimatetime" : 200,
		"enablehscroll" : 1,
		"enablevscroll" : 1,
		"devicewidth" : 0.0,
		"description" : "",
		"digest" : "",
		"tags" : "",
		"style" : "",
		"subpatcher_template" : "",
		"assistshowspatchername" : 0,
		"boxes" : [ 			{
				"box" : 				{
					"id" : "obj-34",
					"maxclass" : "toggle",
					"numinlets" : 1,
					"numoutlets" : 1,
					"outlettype" : [ "int" ],
					"parameter_enable" : 0,
					"patching_rect" : [ 9.0, 220.0, 24.0, 24.0 ]
				}

			}
, 			{
				"box" : 				{
					"fontface" : 0,
					"fontname" : "Lato",
					"fontsize" : 48.0,
					"id" : "obj-26",
					"maxclass" : "comment",
					"numinlets" : 1,
					"numoutlets" : 0,
					"patching_rect" : [ 1.5, 3.0, 256.0, 64.0 ],
					"text" : "alea.gamma"
				}

			}
, 			{
				"box" : 				{
					"fontname" : "Lato",
					"fontsize" : 13.0,
					"id" : "obj-31",
					"linecount" : 8,
					"maxclass" : "comment",
					"numinlets" : 1,
					"numoutlets" : 0,
					"patching_rect" : [ 1.5, 69.0, 410.0, 131.0 ],
					"text" : "Generates random values based on the Gamma distribution. It offers control over the shape and scale parameters (nu (ν symbol) and lambda, respectively) and allows for seeding the random number generator to ensure reproducible results.\n\nAn asymetrical distribution. For nu greater than 10 the distribution resembles the Gaussian distribution. nu=mean, lambda scales the distribution"
				}

			}
, 			{
				"box" : 				{
					"fontname" : "Arial",
					"fontsize" : 12.0,
					"id" : "obj-30",
					"maxclass" : "message",
					"numinlets" : 2,
					"numoutlets" : 1,
					"outlettype" : [ "" ],
					"patching_rect" : [ 18.0, 278.0, 65.0, 22.0 ],
					"text" : "seed 1234"
				}

			}
, 			{
				"box" : 				{
					"fontname" : "Arial",
					"fontsize" : 12.0,
					"id" : "obj-29",
					"maxclass" : "message",
					"numinlets" : 2,
					"numoutlets" : 1,
					"outlettype" : [ "" ],
					"patching_rect" : [ 22.0, 311.0, 30.0, 22.0 ],
					"text" : "info"
				}

			}
, 			{
				"box" : 				{
					"fontname" : "Arial",
					"fontsize" : 12.0,
					"id" : "obj-45",
					"maxclass" : "newobj",
					"numinlets" : 5,
					"numoutlets" : 4,
					"outlettype" : [ "int", "", "", "int" ],
					"patching_rect" : [ 164.0, 467.0, 82.0, 22.0 ],
					"text" : "counter 0 128"
				}

			}
, 			{
				"box" : 				{
					"fontname" : "Arial",
					"fontsize" : 12.0,
					"id" : "obj-46",
					"maxclass" : "newobj",
					"numinlets" : 1,
					"numoutlets" : 2,
					"outlettype" : [ "bang", "float" ],
					"patching_rect" : [ 164.0, 446.0, 85.0, 22.0 ],
					"text" : "t b f"
				}

			}
, 			{
				"box" : 				{
					"fontname" : "Arial",
					"fontsize" : 12.0,
					"id" : "obj-48",
					"maxclass" : "newobj",
					"numinlets" : 2,
					"numoutlets" : 1,
					"outlettype" : [ "" ],
					"patching_rect" : [ 164.0, 490.0, 109.0, 22.0 ],
					"text" : "pack"
				}

			}
, 			{
				"box" : 				{
					"editor_rect" : [ 352.0, 705.0, 210.0, 167.0 ],
					"embed" : 0,
					"fontname" : "Arial",
					"fontsize" : 12.0,
					"id" : "obj-49",
					"maxclass" : "newobj",
					"numinlets" : 2,
					"numoutlets" : 2,
					"outlettype" : [ "int", "bang" ],
					"patching_rect" : [ 164.0, 514.0, 37.0, 22.0 ],
					"saved_object_attributes" : 					{
						"embed" : 0,
						"name" : "",
						"parameter_enable" : 0,
						"parameter_mappable" : 0,
						"range" : 128,
						"showeditor" : 0,
						"size" : 128
					}
,
					"showeditor" : 0,
					"text" : "table"
				}

			}
, 			{
				"box" : 				{
					"fontname" : "Arial",
					"fontsize" : 12.0,
					"id" : "obj-2",
					"maxclass" : "message",
					"numinlets" : 2,
					"numoutlets" : 1,
					"outlettype" : [ "" ],
					"patching_rect" : [ 83.0, 444.0, 62.0, 22.0 ],
					"text" : "clear"
				}

			}
, 			{
				"box" : 				{
					"fontname" : "Arial",
					"fontsize" : 12.0,
					"id" : "obj-3",
					"maxclass" : "newobj",
					"numinlets" : 2,
					"numoutlets" : 2,
					"outlettype" : [ "int", "int" ],
					"patching_rect" : [ 9.0, 483.0, 59.0, 22.0 ],
					"text" : "Histo"
				}

			}
, 			{
				"box" : 				{
					"editor_rect" : [ 102.0, 705.0, 210.0, 167.0 ],
					"embed" : 0,
					"fontname" : "Arial",
					"fontsize" : 12.0,
					"id" : "obj-4",
					"maxclass" : "newobj",
					"numinlets" : 2,
					"numoutlets" : 2,
					"outlettype" : [ "int", "bang" ],
					"patching_rect" : [ 9.0, 514.0, 35.0, 22.0 ],
					"saved_object_attributes" : 					{
						"embed" : 0,
						"name" : "",
						"parameter_enable" : 0,
						"parameter_mappable" : 0,
						"range" : 128,
						"showeditor" : 0,
						"size" : 128
					}
,
					"showeditor" : 0,
					"text" : "table"
				}

			}
, 			{
				"box" : 				{
					"bgcolor" : [ 0.866666666666667, 0.866666666666667, 0.866666666666667, 1.0 ],
					"fontname" : "Arial",
					"fontsize" : 12.0,
					"id" : "obj-5",
					"maxclass" : "number",
					"numinlets" : 1,
					"numoutlets" : 2,
					"outlettype" : [ "", "bang" ],
					"parameter_enable" : 0,
					"patching_rect" : [ 9.0, 443.0, 38.0, 22.0 ],
					"textcolor" : [ 0.0, 0.0, 0.0, 1.0 ],
					"triscale" : 0.9
				}

			}
, 			{
				"box" : 				{
					"color" : [ 0.380392156862745, 0.611764705882353, 0.611764705882353, 1.0 ],
					"fontname" : "Arial",
					"fontsize" : 12.0,
					"id" : "obj-6",
					"maxclass" : "newobj",
					"numinlets" : 5,
					"numoutlets" : 3,
					"outlettype" : [ "", "", "" ],
					"patching_rect" : [ 9.0, 384.0, 223.0, 22.0 ],
					"text" : "alea.mapper 0 4 0 128"
				}

			}
, 			{
				"box" : 				{
					"bgcolor" : [ 0.866666666666667, 0.866666666666667, 0.866666666666667, 1.0 ],
					"fontname" : "Arial",
					"fontsize" : 12.0,
					"format" : 6,
					"id" : "obj-7",
					"maxclass" : "flonum",
					"numinlets" : 1,
					"numoutlets" : 2,
					"outlettype" : [ "", "bang" ],
					"parameter_enable" : 0,
					"patching_rect" : [ 111.0, 411.0, 39.0, 22.0 ],
					"textcolor" : [ 0.0, 0.0, 0.0, 1.0 ],
					"triscale" : 0.9
				}

			}
, 			{
				"box" : 				{
					"bgcolor" : [ 0.866666666666667, 0.866666666666667, 0.866666666666667, 1.0 ],
					"fontname" : "Arial",
					"fontsize" : 12.0,
					"format" : 6,
					"id" : "obj-8",
					"maxclass" : "flonum",
					"numinlets" : 1,
					"numoutlets" : 2,
					"outlettype" : [ "", "bang" ],
					"parameter_enable" : 0,
					"patching_rect" : [ 213.0, 409.0, 39.0, 22.0 ],
					"textcolor" : [ 0.0, 0.0, 0.0, 1.0 ],
					"triscale" : 0.9
				}

			}
, 			{
				"box" : 				{
					"fontname" : "Arial",
					"fontsize" : 12.0,
					"id" : "obj-9",
					"maxclass" : "newobj",
					"numinlets" : 2,
					"numoutlets" : 1,
					"outlettype" : [ "bang" ],
					"patching_rect" : [ 9.0, 254.0, 56.0, 22.0 ],
					"text" : "metro 10"
				}

			}
, 			{
				"box" : 				{
					"bgcolor" : [ 0.866666666666667, 0.866666666666667, 0.866666666666667, 1.0 ],
					"fontname" : "Arial",
					"fontsize" : 12.0,
					"format" : 6,
					"id" : "obj-11",
					"maxclass" : "flonum",
					"numinlets" : 1,
					"numoutlets" : 2,
					"outlettype" : [ "", "bang" ],
					"parameter_enable" : 0,
					"patching_rect" : [ 60.0, 361.0, 39.0, 22.0 ],
					"textcolor" : [ 0.0, 0.0, 0.0, 1.0 ],
					"triscale" : 0.9
				}

			}
, 			{
				"box" : 				{
					"bgcolor" : [ 0.866666666666667, 0.866666666666667, 0.866666666666667, 1.0 ],
					"fontname" : "Arial",
					"fontsize" : 12.0,
					"format" : 6,
					"id" : "obj-12",
					"maxclass" : "flonum",
					"numinlets" : 1,
					"numoutlets" : 2,
					"outlettype" : [ "", "bang" ],
					"parameter_enable" : 0,
					"patching_rect" : [ 162.0, 361.0, 39.0, 22.0 ],
					"textcolor" : [ 0.0, 0.0, 0.0, 1.0 ],
					"triscale" : 0.9
				}

			}
, 			{
				"box" : 				{
					"bgcolor" : [ 0.866666666666667, 0.866666666666667, 0.866666666666667, 1.0 ],
					"fontname" : "Arial",
					"fontsize" : 12.0,
					"format" : 6,
					"id" : "obj-13",
					"maxclass" : "flonum",
					"numinlets" : 1,
					"numoutlets" : 2,
					"outlettype" : [ "", "bang" ],
					"parameter_enable" : 0,
					"patching_rect" : [ 111.0, 361.0, 39.0, 22.0 ],
					"textcolor" : [ 0.0, 0.0, 0.0, 1.0 ],
					"triscale" : 0.9
				}

			}
, 			{
				"box" : 				{
					"bgcolor" : [ 0.866666666666667, 0.866666666666667, 0.866666666666667, 1.0 ],
					"fontname" : "Arial",
					"fontsize" : 12.0,
					"format" : 6,
					"id" : "obj-14",
					"maxclass" : "flonum",
					"numinlets" : 1,
					"numoutlets" : 2,
					"outlettype" : [ "", "bang" ],
					"parameter_enable" : 0,
					"patching_rect" : [ 213.0, 361.0, 39.0, 22.0 ],
					"textcolor" : [ 0.0, 0.0, 0.0, 1.0 ],
					"triscale" : 0.9
				}

			}
, 			{
				"box" : 				{
					"id" : "obj-17",
					"maxclass" : "preset",
					"numinlets" : 1,
					"numoutlets" : 5,
					"outlettype" : [ "preset", "int", "preset", "int", "" ],
					"patching_rect" : [ 233.0, 220.0, 57.0, 16.0 ],
					"preset_data" : [ 						{
							"number" : 1,
							"data" : [ 5, "obj-21", "number", "int", 2, 5, "obj-19", "number", "float", 1.0, 5, "obj-14", "number", "float", 128.0, 5, "obj-13", "number", "float", 6.0, 5, "obj-12", "number", "float", 0.0, 5, "obj-11", "number", "float", 0.0, 5, "<invalid>", "toggle", "int", 0, 5, "obj-8", "number", "float", 0.0, 5, "obj-7", "number", "float", 0.0, 5, "obj-5", "number", "int", 0 ]
						}
, 						{
							"number" : 2,
							"data" : [ 5, "obj-21", "number", "int", 4, 5, "obj-19", "number", "float", 1.0, 5, "obj-14", "number", "float", 128.0, 5, "obj-13", "number", "float", 10.0, 5, "obj-12", "number", "float", 0.0, 5, "obj-11", "number", "float", 0.0, 5, "<invalid>", "toggle", "int", 0, 5, "obj-8", "number", "float", 10.443130493164062, 5, "obj-7", "number", "float", 0.0, 5, "obj-5", "number", "int", 30 ]
						}
, 						{
							"number" : 3,
							"data" : [ 5, "obj-21", "number", "int", 10, 5, "obj-19", "number", "float", 1.0, 5, "obj-14", "number", "float", 128.0, 5, "obj-13", "number", "float", 20.0, 5, "obj-12", "number", "float", 0.0, 5, "obj-11", "number", "float", 0.0, 5, "<invalid>", "toggle", "int", 0, 5, "obj-8", "number", "float", 23.555400848388672, 5, "obj-7", "number", "float", 0.0, 5, "obj-5", "number", "int", 0 ]
						}
, 						{
							"number" : 4,
							"data" : [ 5, "obj-21", "number", "int", 16, 5, "obj-19", "number", "float", 1.0, 5, "obj-14", "number", "float", 128.0, 5, "obj-13", "number", "float", 26.0, 5, "obj-12", "number", "float", 0.0, 5, "obj-11", "number", "float", 0.0, 5, "<invalid>", "toggle", "int", 0, 5, "obj-8", "number", "float", 26.208248138427734, 5, "obj-7", "number", "float", 0.0, 5, "obj-5", "number", "int", 0 ]
						}
 ]
				}

			}
, 			{
				"box" : 				{
					"color" : [ 1.0, 0.890196078431372, 0.090196078431373, 1.0 ],
					"fontname" : "Arial",
					"fontsize" : 12.0,
					"id" : "obj-18",
					"maxclass" : "newobj",
					"numinlets" : 3,
					"numoutlets" : 1,
					"outlettype" : [ "" ],
					"patching_rect" : [ 9.0, 333.0, 167.0, 22.0 ],
					"text" : "alea.gamma 2 1"
				}

			}
, 			{
				"box" : 				{
					"bgcolor" : [ 0.866666666666667, 0.866666666666667, 0.866666666666667, 1.0 ],
					"fontname" : "Arial",
					"fontsize" : 12.0,
					"format" : 6,
					"id" : "obj-19",
					"maxclass" : "flonum",
					"numinlets" : 1,
					"numoutlets" : 2,
					"outlettype" : [ "", "bang" ],
					"parameter_enable" : 0,
					"patching_rect" : [ 153.0, 313.0, 34.0, 22.0 ],
					"textcolor" : [ 0.0, 0.0, 0.0, 1.0 ],
					"triscale" : 0.9
				}

			}
, 			{
				"box" : 				{
					"fontname" : "Arial",
					"fontsize" : 12.0,
					"id" : "obj-20",
					"maxclass" : "comment",
					"numinlets" : 1,
					"numoutlets" : 0,
					"patching_rect" : [ 152.0, 295.0, 48.0, 20.0 ],
					"text" : "lambda"
				}

			}
, 			{
				"box" : 				{
					"bgcolor" : [ 0.866666666666667, 0.866666666666667, 0.866666666666667, 1.0 ],
					"fontname" : "Arial",
					"fontsize" : 12.0,
					"id" : "obj-21",
					"maxclass" : "number",
					"numinlets" : 1,
					"numoutlets" : 2,
					"outlettype" : [ "", "bang" ],
					"parameter_enable" : 0,
					"patching_rect" : [ 81.0, 311.0, 57.0, 22.0 ],
					"textcolor" : [ 0.0, 0.0, 0.0, 1.0 ],
					"triscale" : 0.9
				}

			}
, 			{
				"box" : 				{
					"fontname" : "Arial",
					"fontsize" : 12.0,
					"id" : "obj-22",
					"maxclass" : "comment",
					"numinlets" : 1,
					"numoutlets" : 0,
					"patching_rect" : [ 79.0, 295.0, 42.0, 20.0 ],
					"text" : "nu > 0"
				}

			}
, 			{
				"box" : 				{
					"fontname" : "Arial",
					"fontsize" : 12.0,
					"id" : "obj-25",
					"maxclass" : "comment",
					"numinlets" : 1,
					"numoutlets" : 0,
					"patching_rect" : [ 175.0, 334.0, 115.0, 20.0 ],
					"text" : "0< float.out >+∞"
				}

			}
 ],
		"lines" : [ 			{
				"patchline" : 				{
					"destination" : [ "obj-6", 1 ],
					"source" : [ "obj-11", 0 ]
				}

			}
, 			{
				"patchline" : 				{
					"destination" : [ "obj-6", 3 ],
					"source" : [ "obj-12", 0 ]
				}

			}
, 			{
				"patchline" : 				{
					"destination" : [ "obj-6", 2 ],
					"source" : [ "obj-13", 0 ]
				}

			}
, 			{
				"patchline" : 				{
					"destination" : [ "obj-6", 4 ],
					"source" : [ "obj-14", 0 ]
				}

			}
, 			{
				"patchline" : 				{
					"destination" : [ "obj-6", 0 ],
					"source" : [ "obj-18", 0 ]
				}

			}
, 			{
				"patchline" : 				{
					"destination" : [ "obj-18", 2 ],
					"source" : [ "obj-19", 0 ]
				}

			}
, 			{
				"patchline" : 				{
					"destination" : [ "obj-3", 0 ],
					"midpoints" : [ 92.5, 464.0, 18.5, 464.0 ],
					"order" : 2,
					"source" : [ "obj-2", 0 ]
				}

			}
, 			{
				"patchline" : 				{
					"destination" : [ "obj-4", 0 ],
					"midpoints" : [ 92.5, 508.0, 18.5, 508.0 ],
					"order" : 1,
					"source" : [ "obj-2", 0 ]
				}

			}
, 			{
				"patchline" : 				{
					"destination" : [ "obj-49", 0 ],
					"midpoints" : [ 92.5, 506.5, 173.5, 506.5 ],
					"order" : 0,
					"source" : [ "obj-2", 0 ]
				}

			}
, 			{
				"patchline" : 				{
					"destination" : [ "obj-18", 1 ],
					"source" : [ "obj-21", 0 ]
				}

			}
, 			{
				"patchline" : 				{
					"destination" : [ "obj-18", 0 ],
					"source" : [ "obj-29", 0 ]
				}

			}
, 			{
				"patchline" : 				{
					"destination" : [ "obj-4", 1 ],
					"source" : [ "obj-3", 1 ]
				}

			}
, 			{
				"patchline" : 				{
					"destination" : [ "obj-4", 0 ],
					"source" : [ "obj-3", 0 ]
				}

			}
, 			{
				"patchline" : 				{
					"destination" : [ "obj-18", 0 ],
					"source" : [ "obj-30", 0 ]
				}

			}
, 			{
				"patchline" : 				{
					"destination" : [ "obj-9", 0 ],
					"source" : [ "obj-34", 0 ]
				}

			}
, 			{
				"patchline" : 				{
					"destination" : [ "obj-48", 0 ],
					"source" : [ "obj-45", 0 ]
				}

			}
, 			{
				"patchline" : 				{
					"destination" : [ "obj-45", 0 ],
					"source" : [ "obj-46", 0 ]
				}

			}
, 			{
				"patchline" : 				{
					"destination" : [ "obj-48", 1 ],
					"source" : [ "obj-46", 1 ]
				}

			}
, 			{
				"patchline" : 				{
					"destination" : [ "obj-49", 0 ],
					"source" : [ "obj-48", 0 ]
				}

			}
, 			{
				"patchline" : 				{
					"destination" : [ "obj-3", 0 ],
					"source" : [ "obj-5", 0 ]
				}

			}
, 			{
				"patchline" : 				{
					"destination" : [ "obj-46", 0 ],
					"midpoints" : [ 18.5, 438.5, 173.5, 438.5 ],
					"order" : 0,
					"source" : [ "obj-6", 0 ]
				}

			}
, 			{
				"patchline" : 				{
					"destination" : [ "obj-5", 0 ],
					"order" : 1,
					"source" : [ "obj-6", 0 ]
				}

			}
, 			{
				"patchline" : 				{
					"destination" : [ "obj-7", 0 ],
					"source" : [ "obj-6", 1 ]
				}

			}
, 			{
				"patchline" : 				{
					"destination" : [ "obj-8", 0 ],
					"source" : [ "obj-6", 2 ]
				}

			}
, 			{
				"patchline" : 				{
					"destination" : [ "obj-18", 0 ],
					"source" : [ "obj-9", 0 ]
				}

			}
 ],
		"dependency_cache" : [ 			{
				"name" : "alea.gamma.mxo",
				"type" : "iLaX"
			}
, 			{
				"name" : "alea.mapper.mxo",
				"type" : "iLaX"
			}
 ],
		"autosave" : 0
	}

}
